<?xml version="1.0" encoding="UTF-8" standalone="no"?>
<!-- Generator: Adobe Illustrator 9.0, SVG Export Plug-In  -->

<!-- This set of SVG files is a complete cards game with figures, numbers	-->

<!--    and backs of cards completely designed in SVG.				-->

<!--    									-->

<!--    Copyright (C) 2004 David Bellot						-->

<!--										-->

<!--    This library is free software; you can redistribute it and/or		-->

<!--    modify it under the terms of the GNU Lesser General Public		-->

<!--    License as published by the Free Software Foundation; either		-->

<!--    version 2 of the License, or (at your option) any later version		-->

<!--										-->

<!--    This library is distributed in the hope that it will be useful,		-->

<!--    but WITHOUT ANY WARRANTY; without even the implied warranty of		-->

<!--    MERCHANTABILITY or FITNESS FOR A PARTICULAR PURPOSE.  See the GNU	-->

<!--    Lesser General Public License for more details.				-->

<!--										-->

<!--    You should have received a copy of the GNU Lesser General Public	-->

<!--    License along with this library; if not, write to the Free Software	-->

<!--    Foundation, Inc., 59 Temple Place, Suite 330, Boston, MA 02111-1307  USA-->

<!--										-->

<!--    Contact the author David Bellot at bellot@stat.berkeley.edu or 		-->

<!--    david.bellot@free.fr or yimyom@users.sourceforge.net			-->

<svg
   width="167.0869141pt"
   height="242.6669922pt"
   viewBox="0 0 167.0869141 242.6669922"
   xml:space="preserve"
   id="svg2"
   version="1.1"
   inkscape:version="1.2.2 (b0a84865, 2022-12-01)"
   sodipodi:docname="10C.svg"
   inkscape:export-filename="/home/byron/art/cards/final/PNGs/10_of_clubs.png"
   inkscape:export-xdpi="215.44792"
   inkscape:export-ydpi="215.44792"
   xmlns:inkscape="http://www.inkscape.org/namespaces/inkscape"
   xmlns:sodipodi="http://sodipodi.sourceforge.net/DTD/sodipodi-0.dtd"
   xmlns:xlink="http://www.w3.org/1999/xlink"
   xmlns="http://www.w3.org/2000/svg"
   xmlns:svg="http://www.w3.org/2000/svg"
   xmlns:rdf="http://www.w3.org/1999/02/22-rdf-syntax-ns#"
   xmlns:cc="http://creativecommons.org/ns#"
   xmlns:dc="http://purl.org/dc/elements/1.1/"><metadata
   id="metadata43"><rdf:RDF><cc:Work
       rdf:about=""><dc:format>image/svg+xml</dc:format><dc:type
         rdf:resource="http://purl.org/dc/dcmitype/StillImage" /><dc:title /></cc:Work></rdf:RDF></metadata><defs
   id="defs41"><radialGradient
     inkscape:collect="always"
     xlink:href="#linearGradient2984"
     id="radialGradient3760"
     cx="48.231091"
     cy="18.137882"
     fx="48.231091"
     fy="18.137882"
     r="9.5"
     gradientUnits="userSpaceOnUse"
     gradientTransform="matrix(-1.5605256,0.01828294,-0.02684055,-2.2909528,123.98377,58.809108)" /><linearGradient
     id="linearGradient2984"><stop
       style="stop-color:#000000;stop-opacity:1;"
       offset="0"
       id="stop2986" /><stop
       style="stop-color:#000000;stop-opacity:0.65648854;"
       offset="1"
       id="stop2988" /></linearGradient><radialGradient
     inkscape:collect="always"
     xlink:href="#linearGradient3784"
     id="radialGradient3792"
     cx="171.48665"
     cy="511.22299"
     fx="171.48665"
     fy="511.22299"
     r="81.902771"
     gradientTransform="matrix(1.1529891,-0.67391547,0.39482025,0.67549043,-233.63262,270.40076)"
     gradientUnits="userSpaceOnUse" /><linearGradient
     id="linearGradient3784"><stop
       style="stop-color:#ffffff;stop-opacity:0.53435117;"
       offset="0"
       id="stop3786" /><stop
       style="stop-color:#000000;stop-opacity:0;"
       offset="1"
       id="stop3788" /></linearGradient><radialGradient
     r="81.902771"
     fy="511.22299"
     fx="171.48665"
     cy="511.22299"
     cx="171.48665"
     gradientTransform="matrix(1.1529891,-0.67391547,0.39482025,0.67549043,-233.63262,270.40076)"
     gradientUnits="userSpaceOnUse"
     id="radialGradient3855"
     xlink:href="#linearGradient3784-4"
     inkscape:collect="always" /><linearGradient
     id="linearGradient3784-4"><stop
       style="stop-color:#ffffff;stop-opacity:0.51908398;"
       offset="0"
       id="stop3786-8" /><stop
       style="stop-color:#000000;stop-opacity:0;"
       offset="1"
       id="stop3788-6" /></linearGradient><radialGradient
     r="81.902771"
     fy="461.84113"
     fx="181.69392"
     cy="461.84113"
     cx="181.69392"
     gradientTransform="matrix(1.1529891,-0.67391547,0.39482025,0.67549043,-233.63262,270.40076)"
     gradientUnits="userSpaceOnUse"
     id="radialGradient3916"
     xlink:href="#linearGradient3784-3"
     inkscape:collect="always" /><linearGradient
     id="linearGradient3784-3"><stop
       style="stop-color:#ffffff;stop-opacity:0.70229006;"
       offset="0"
       id="stop3786-86" /><stop
       style="stop-color:#000000;stop-opacity:0;"
       offset="1"
       id="stop3788-2" /></linearGradient></defs><sodipodi:namedview
   pagecolor="#ffffff"
   bordercolor="#666666"
   borderopacity="1"
   objecttolerance="10"
   gridtolerance="10"
   guidetolerance="10"
   inkscape:pageopacity="0"
   inkscape:pageshadow="2"
   inkscape:window-width="1309"
   inkscape:window-height="456"
   id="namedview39"
   showgrid="false"
   inkscape:zoom="2.4336873"
   inkscape:cx="117.92805"
   inkscape:cy="16.846864"
   inkscape:window-x="63"
   inkscape:window-y="25"
   inkscape:window-maximized="0"
   inkscape:current-layer="svg2"
   inkscape:showpageshadow="2"
   inkscape:pagecheckerboard="0"
   inkscape:deskcolor="#d1d1d1"
   inkscape:document-units="pt" />
	<g
   id="Layer_x0020_1"
   style="fill-rule:nonzero;clip-rule:nonzero;stroke:#000000;stroke-miterlimit:4;">
		<path
   style="fill:#FFFFFF;stroke-width:0.5;"
   d="M166.8369141,235.5478516c0,3.7773438-3.0869141,6.8691406-6.8710938,6.8691406H7.1108398c-3.7749023,0-6.8608398-3.0917969-6.8608398-6.8691406V7.1201172C0.25,3.3427734,3.3359375,0.25,7.1108398,0.25h152.8549805    c3.7841797,0,6.8710938,3.0927734,6.8710938,6.8701172v228.4277344z"
   id="path5" />
		<g
   style="stroke:none;"
   id="g7">
			<g
   id="g9">
				
			</g>
			
		</g>
		<g
   id="g15">
			
		</g>
		<g
   id="g19">
			
		</g>
		<g
   style="stroke:none;"
   id="g23">
			<g
   id="g25">
				
			</g>
			
		</g>
		<g
   style="stroke:none;"
   id="g31">
			<g
   id="g33">
				
			</g>
			
		</g>
	</g>












<g
   transform="matrix(1.4856506,0,0,1.4856506,-54.024661,10.018072)"
   id="layer1-1-4"><path
     id="cl-9"
     d="m 50.291466,22.698228 c 0,0 2.375,-1.9 2.375,-4.534 0,-1.542 -1.369,-4.102 -4.534,-4.102 -3.165,0 -4.534,2.561 -4.534,4.102 0,2.634 2.375,4.534 2.375,4.534 -2.638,-2.055 -7.341,-0.652 -7.341,3.455 0,2.056 1.68,4.318 4.318,4.318 3.165,0 4.534,-3.455 4.534,-3.455 0,0 0.402,3.938 -1.943,6.046 h 5.182 c -2.345,-2.107 -1.943,-6.046 -1.943,-6.046 0,0 1.369,3.455 4.534,3.455 2.639,0 4.318,-2.263 4.318,-4.318 0,-4.107 -4.703,-5.51 -7.341,-3.455 z"
     inkscape:connector-curvature="0"
     style="fill:#000000" /></g>









<path
   style="fill:#000000"
   inkscape:connector-curvature="0"
   d="m 57.572834,25.099947 c 0,0 5.967372,-4.773898 5.967372,-11.392027 0,-3.8743954 -3.43972,-10.3065945 -11.392028,-10.3065945 -7.952308,0 -11.392028,6.4347116 -11.392028,10.3065945 0,6.618129 5.967373,11.392027 5.967373,11.392027 -6.62818,-5.163348 -18.444833,-1.638201 -18.444833,8.680956 0,5.16586 4.22113,10.849311 10.849311,10.849311 7.952308,0 11.392027,-8.680956 11.392027,-8.680956 0,0 1.010056,9.894531 -4.881939,15.191045 h 13.020178 c -5.891994,-5.294001 -4.881938,-15.191045 -4.881938,-15.191045 0,0 3.439718,8.680956 11.392027,8.680956 6.630693,0 10.849311,-5.685963 10.849311,-10.849311 0,-10.319157 -11.816654,-13.844304 -18.444833,-8.680956 z"
   id="cl-9-8" /><path
   style="fill:#000000"
   inkscape:connector-curvature="0"
   d="m 57.110434,93.200747 c 0,0 5.967372,-4.773898 5.967372,-11.392027 0,-3.874396 -3.43972,-10.306594 -11.392028,-10.306594 -7.952308,0 -11.392028,6.434711 -11.392028,10.306594 0,6.618129 5.967373,11.392027 5.967373,11.392027 -6.62818,-5.163348 -18.444833,-1.638201 -18.444833,8.680953 0,5.16587 4.22113,10.84932 10.849311,10.84932 7.952308,0 11.392027,-8.68096 11.392027,-8.68096 0,0 1.010056,9.89453 -4.881939,15.19104 h 13.020178 c -5.891994,-5.294 -4.881938,-15.19104 -4.881938,-15.19104 0,0 3.439718,8.68096 11.392027,8.68096 6.630693,0 10.849311,-5.68597 10.849311,-10.84932 0,-10.319154 -11.816654,-13.844301 -18.444833,-8.680953 z"
   id="cl-9-8-0" /><path
   style="fill:#000000"
   inkscape:connector-curvature="0"
   d="m 121.55789,24.926219 c 0,0 5.96737,-4.773898 5.96737,-11.392027 0,-3.8743954 -3.43971,-10.3065945 -11.39203,-10.3065945 -7.95231,0 -11.39202,6.4347116 -11.39202,10.3065945 0,6.618129 5.96737,11.392027 5.96737,11.392027 -6.62818,-5.163348 -18.444834,-1.638201 -18.444834,8.680956 0,5.16586 4.22113,10.849311 10.849304,10.849311 7.95231,0 11.39203,-8.680956 11.39203,-8.680956 0,0 1.01006,9.894531 -4.88193,15.191045 h 13.02017 c -5.89199,-5.294001 -4.88193,-15.191045 -4.88193,-15.191045 0,0 3.43971,8.680956 11.39202,8.680956 6.63069,0 10.84931,-5.685963 10.84931,-10.849311 0,-10.319157 -11.81665,-13.844304 -18.44483,-8.680956 z"
   id="cl-9-8-9" /><path
   style="fill:#000000"
   inkscape:connector-curvature="0"
   d="m 121.55789,93.027019 c 0,0 5.96737,-4.773898 5.96737,-11.392028 0,-3.874395 -3.43971,-10.306593 -11.39203,-10.306593 -7.95231,0 -11.39202,6.434711 -11.39202,10.306593 0,6.61813 5.96737,11.392028 5.96737,11.392028 -6.62818,-5.163348 -18.444834,-1.638201 -18.444834,8.680951 0,5.16587 4.22113,10.84932 10.849304,10.84932 7.95231,0 11.39203,-8.68096 11.39203,-8.68096 0,0 1.01006,9.89453 -4.88193,15.19104 h 13.02017 c -5.89199,-5.294 -4.88193,-15.19104 -4.88193,-15.19104 0,0 3.43971,8.68096 11.39202,8.68096 6.63069,0 10.84931,-5.68597 10.84931,-10.84932 0,-10.319152 -11.81665,-13.844299 -18.44483,-8.680951 z"
   id="cl-9-8-0-4" /><path
   style="fill:#000000"
   inkscape:connector-curvature="0"
   d="m 89.576798,59.281103 c 0,0 5.967372,-4.773897 5.967372,-11.392027 0,-3.874395 -3.43972,-10.306594 -11.392028,-10.306594 -7.952308,0 -11.392028,6.434712 -11.392028,10.306594 0,6.61813 5.967373,11.392027 5.967373,11.392027 -6.62818,-5.163347 -18.444833,-1.638201 -18.444833,8.680957 0,5.165859 4.22113,10.84931 10.849311,10.84931 7.952308,0 11.392027,-8.680956 11.392027,-8.680956 0,0 1.010056,9.894531 -4.881939,15.191045 h 13.020178 c -5.891994,-5.294001 -4.881938,-15.191045 -4.881938,-15.191045 0,0 3.439718,8.680956 11.392027,8.680956 6.63069,0 10.84931,-5.685963 10.84931,-10.84931 0,-10.319158 -11.816653,-13.844304 -18.444832,-8.680957 z"
   id="cl-9-8-8" /><path
   style="fill:#000000"
   inkscape:connector-curvature="0"
   d="m 110.06258,217.80216 c 0,0 -5.96737,4.77391 -5.96737,11.39203 0,3.8744 3.43971,10.3066 11.39202,10.3066 7.95232,0 11.39203,-6.43471 11.39203,-10.3066 0,-6.61812 -5.96737,-11.39203 -5.96737,-11.39203 6.62818,5.16335 18.44483,1.6382 18.44483,-8.68095 0,-5.16586 -4.22112,-10.84931 -10.84931,-10.84931 -7.95231,0 -11.39202,8.68095 -11.39202,8.68095 0,0 -1.01006,-9.89453 4.88193,-15.19104 h -13.02017 c 5.89199,5.294 4.88193,15.19104 4.88193,15.19104 0,0 -3.43972,-8.68095 -11.39203,-8.68095 -6.630687,0 -10.849305,5.68596 -10.849305,10.84931 0,10.31915 11.816655,13.8443 18.444835,8.68095 z"
   id="cl-9-8-4" /><path
   style="fill:#000000"
   inkscape:connector-curvature="0"
   d="m 110.70832,149.70136 c 0,0 -5.96737,4.77391 -5.96737,11.39203 0,3.8744 3.43971,10.3066 11.39202,10.3066 7.95232,0 11.39203,-6.43471 11.39203,-10.3066 0,-6.61812 -5.96737,-11.39203 -5.96737,-11.39203 6.62818,5.16335 18.44483,1.6382 18.44483,-8.68095 0,-5.16586 -4.22112,-10.84931 -10.84931,-10.84931 -7.95231,0 -11.39202,8.68095 -11.39202,8.68095 0,0 -1.01006,-9.89453 4.88193,-15.19104 h -13.02017 c 5.89199,5.294 4.88193,15.19104 4.88193,15.19104 0,0 -3.43972,-8.68095 -11.39203,-8.68095 -6.630687,0 -10.849305,5.68596 -10.849305,10.84931 0,10.31915 11.816655,13.8443 18.444835,8.68095 z"
   id="cl-9-8-0-2" /><path
   style="fill:#000000"
   inkscape:connector-curvature="0"
   d="m 46.077633,217.97556 c 0,0 -5.967372,4.77391 -5.967372,11.39203 0,3.8744 3.43972,10.3066 11.392028,10.3066 7.952308,0 11.392028,-6.43471 11.392028,-10.3066 0,-6.61812 -5.967373,-11.39203 -5.967373,-11.39203 6.62818,5.16335 18.444833,1.6382 18.444833,-8.68095 0,-5.16586 -4.22113,-10.84931 -10.849311,-10.84931 -7.952308,0 -11.392027,8.68095 -11.392027,8.68095 0,0 -1.010056,-9.89453 4.881939,-15.19104 H 44.9922 c 5.891994,5.294 4.881938,15.19104 4.881938,15.19104 0,0 -3.439718,-8.68095 -11.392027,-8.68095 -6.630693,0 -10.849311,5.68596 -10.849311,10.84931 0,10.31915 11.816654,13.8443 18.444833,8.68095 z"
   id="cl-9-8-9-6" /><path
   style="fill:#000000"
   inkscape:connector-curvature="0"
   d="m 46.261118,149.87509 c 0,0 -5.967372,4.77391 -5.967372,11.39203 0,3.8744 3.43972,10.3066 11.392028,10.3066 7.952308,0 11.392028,-6.43471 11.392028,-10.3066 0,-6.61812 -5.967373,-11.39203 -5.967373,-11.39203 6.62818,5.16335 18.444833,1.6382 18.444833,-8.68095 0,-5.16586 -4.22113,-10.84931 -10.849311,-10.84931 -7.952308,0 -11.392027,8.68095 -11.392027,8.68095 0,0 -1.010056,-9.89453 4.881939,-15.19104 H 45.175685 c 5.891994,5.294 4.881938,15.19104 4.881938,15.19104 0,0 -3.439718,-8.68095 -11.392027,-8.68095 -6.630693,0 -10.849311,5.68596 -10.849311,10.84931 0,10.31915 11.816654,13.8443 18.444833,8.68095 z"
   id="cl-9-8-0-4-9" /><g
   aria-label="1"
   id="text3788"
   style="line-height:0%;font-family:'Bitstream Vera Sans';letter-spacing:0px;word-spacing:0px"><path
     d="M 10.75972,27.170401 H 7.9472202 V 9.2485256 q -1.015625,0.9687504 -2.671875,1.9375004 -1.640625,0.96875 -2.953125,1.453125 V 9.9204006 q 2.359375,-1.109375 4.125,-2.6875 1.765625,-1.578125 2.5,-3.0625 H 10.75972 Z"
     style="font-size:32px;line-height:1.25;font-family:Arial;-inkscape-font-specification:Arial"
     id="path4593" /></g>

<g
   aria-label="0"
   id="text3038"
   style="line-height:0%;font-family:'Bitstream Vera Sans';letter-spacing:0px;word-spacing:0px"><path
     d="m 27.736458,16.043109 q 0,3.68 -0.768,6.336 -0.768,2.624 -2.432,4.032 -1.664,1.408 -4.416,1.408 -3.872,0 -5.728,-3.104 -1.824,-3.136 -1.824,-8.672 0,-3.712 0.736,-6.3359997 0.768,-2.624 2.432,-4 1.664,-1.408 4.384,-1.408 3.84,0 5.728,3.104 1.888,3.0719997 1.888,8.6399997 z m -12.352,0 q 0,4.704 1.056,7.04 1.088,2.336 3.68,2.336 2.56,0 3.648,-2.304 1.12,-2.336 1.12,-7.072 0,-4.672 -1.12,-7.0079997 -1.088,-2.336 -3.648,-2.336 -2.592,0 -3.68,2.336 -1.056,2.3359997 -1.056,7.0079997 z"
     style="font-size:32px;line-height:1.25"
     id="path4590" /></g><path
   style="fill:#000000"
   inkscape:connector-curvature="0"
   d="m 78.0698,183.9376 c 0,0 -5.96738,4.77389 -5.96738,11.39202 0,3.8744 3.43972,10.3066 11.39203,10.3066 7.95231,0 11.39203,-6.43471 11.39203,-10.3066 0,-6.61813 -5.96737,-11.39202 -5.96737,-11.39202 6.62818,5.16334 18.44483,1.6382 18.44483,-8.68096 0,-5.16586 -4.22113,-10.84931 -10.84931,-10.84931 -7.95231,0 -11.39203,8.68096 -11.39203,8.68096 0,0 -1.01005,-9.89454 4.88194,-15.19105 H 76.98436 c 5.892,5.294 4.88194,15.19105 4.88194,15.19105 0,0 -3.43972,-8.68096 -11.39203,-8.68096 -6.630688,0 -10.849308,5.68596 -10.849308,10.84931 0,10.31916 11.816658,13.8443 18.444838,8.68096 z"
   id="cl-9-8-8-8" />

</svg>
