<?xml version="1.0" encoding="UTF-8" standalone="no"?>
<!-- Generator: Adobe Illustrator 9.0, SVG Export Plug-In  -->

<!-- This set of SVG files is a complete cards game with figures, numbers	-->

<!--    and backs of cards completely designed in SVG.				-->

<!--    									-->

<!--    Copyright (C) 2004 David Bellot						-->

<!--										-->

<!--    This library is free software; you can redistribute it and/or		-->

<!--    modify it under the terms of the GNU Lesser General Public		-->

<!--    License as published by the Free Software Foundation; either		-->

<!--    version 2 of the License, or (at your option) any later version		-->

<!--										-->

<!--    This library is distributed in the hope that it will be useful,		-->

<!--    but WITHOUT ANY WARRANTY; without even the implied warranty of		-->

<!--    MERCHANTABILITY or FITNESS FOR A PARTICULAR PURPOSE.  See the GNU	-->

<!--    Lesser General Public License for more details.				-->

<!--										-->

<!--    You should have received a copy of the GNU Lesser General Public	-->

<!--    License along with this library; if not, write to the Free Software	-->

<!--    Foundation, Inc., 59 Temple Place, Suite 330, Boston, MA 02111-1307  USA-->

<!--										-->

<!--    Contact the author David Bellot at bellot@stat.berkeley.edu or 		-->

<!--    david.bellot@free.fr or yimyom@users.sourceforge.net			-->

<svg
   width="167.0869141pt"
   height="242.6669922pt"
   viewBox="0 0 167.0869141 242.6669922"
   xml:space="preserve"
   id="svg2"
   version="1.1"
   inkscape:version="1.2.2 (b0a84865, 2022-12-01)"
   sodipodi:docname="6H.svg"
   inkscape:export-filename="/home/byron/art/cards/final/PNGs/6_of_hearts.png"
   inkscape:export-xdpi="215.44792"
   inkscape:export-ydpi="215.44792"
   xmlns:inkscape="http://www.inkscape.org/namespaces/inkscape"
   xmlns:sodipodi="http://sodipodi.sourceforge.net/DTD/sodipodi-0.dtd"
   xmlns:xlink="http://www.w3.org/1999/xlink"
   xmlns="http://www.w3.org/2000/svg"
   xmlns:svg="http://www.w3.org/2000/svg"
   xmlns:rdf="http://www.w3.org/1999/02/22-rdf-syntax-ns#"
   xmlns:cc="http://creativecommons.org/ns#"
   xmlns:dc="http://purl.org/dc/elements/1.1/"><metadata
   id="metadata43"><rdf:RDF><cc:Work
       rdf:about=""><dc:format>image/svg+xml</dc:format><dc:type
         rdf:resource="http://purl.org/dc/dcmitype/StillImage" /><dc:title /></cc:Work></rdf:RDF></metadata><defs
   id="defs41"><radialGradient
     inkscape:collect="always"
     xlink:href="#linearGradient3773"
     id="radialGradient3781"
     cx="-0.15782039"
     cy="-8.8345356"
     fx="-0.15782039"
     fy="-8.8345356"
     r="7.9997029"
     gradientTransform="matrix(-1.5842693,-0.02349808,0.03071979,-2.4775745,-0.24856378,-26.713507)"
     gradientUnits="userSpaceOnUse" /><linearGradient
     id="linearGradient3773"><stop
       style="stop-color:#000000;stop-opacity:1;"
       offset="0"
       id="stop3775" /><stop
       style="stop-color:#000000;stop-opacity:0.64885497;"
       offset="1"
       id="stop3777" /></linearGradient><radialGradient
     inkscape:collect="always"
     xlink:href="#linearGradient3773"
     id="radialGradient3957"
     cx="-0.15782039"
     cy="-8.8345356"
     fx="-0.15782039"
     fy="-8.8345356"
     r="7.9997029"
     gradientTransform="matrix(-1.5842693,-0.02349808,0.03071979,-2.4775745,-0.24856378,-26.713507)"
     gradientUnits="userSpaceOnUse" /><linearGradient
     id="linearGradient3959"><stop
       style="stop-color:#000000;stop-opacity:1;"
       offset="0"
       id="stop3961" /><stop
       style="stop-color:#000000;stop-opacity:0.64885497;"
       offset="1"
       id="stop3963" /></linearGradient><radialGradient
     r="81.902771"
     fy="509.47577"
     fx="168.02475"
     cy="509.47577"
     cx="168.02475"
     gradientTransform="matrix(1.2565605,-0.77740644,0.33663816,0.5361257,-221.20213,359.24256)"
     gradientUnits="userSpaceOnUse"
     id="radialGradient3975"
     xlink:href="#linearGradient3784-4"
     inkscape:collect="always" /><linearGradient
     id="linearGradient3784-4"><stop
       style="stop-color:#ffffff;stop-opacity:0.4351145;"
       offset="0"
       id="stop3786-8" /><stop
       style="stop-color:#000000;stop-opacity:0;"
       offset="1"
       id="stop3788-6" /></linearGradient><radialGradient
     inkscape:collect="always"
     xlink:href="#linearGradient3784-4-5"
     id="radialGradient3929"
     gradientUnits="userSpaceOnUse"
     gradientTransform="matrix(1.2565605,-0.77740644,0.33663816,0.5361257,-221.20213,359.24256)"
     cx="168.02475"
     cy="509.47577"
     fx="168.02475"
     fy="509.47577"
     r="81.902771" /><linearGradient
     id="linearGradient3784-4-5"><stop
       style="stop-color:#ffffff;stop-opacity:0.48854962;"
       offset="0"
       id="stop3786-8-0" /><stop
       style="stop-color:#000000;stop-opacity:0;"
       offset="1"
       id="stop3788-6-3" /></linearGradient><radialGradient
     inkscape:collect="always"
     xlink:href="#linearGradient3784-4-1"
     id="radialGradient3927"
     gradientUnits="userSpaceOnUse"
     gradientTransform="matrix(1.2565605,-0.77740644,0.33663816,0.5361257,-221.20213,359.24256)"
     cx="168.02475"
     cy="509.47577"
     fx="168.02475"
     fy="509.47577"
     r="81.902771" /><linearGradient
     id="linearGradient3784-4-1"><stop
       style="stop-color:#ffffff;stop-opacity:0.23664123;"
       offset="0"
       id="stop3786-8-03" /><stop
       style="stop-color:#000000;stop-opacity:0;"
       offset="1"
       id="stop3788-6-6" /></linearGradient><radialGradient
     inkscape:collect="always"
     xlink:href="#linearGradient3768"
     id="radialGradient3776"
     cx="-0.20602037"
     cy="-4.5786963"
     fx="-0.20602037"
     fy="-4.5786963"
     r="8"
     gradientTransform="matrix(-1,0,0,-1.7201755,-0.41204074,-13.027194)"
     gradientUnits="userSpaceOnUse" /><linearGradient
     id="linearGradient3768"><stop
       style="stop-color:#df0000;stop-opacity:1;"
       offset="0"
       id="stop3770" /><stop
       style="stop-color:#df0000;stop-opacity:0.67175573;"
       offset="1"
       id="stop3772" /></linearGradient><radialGradient
     r="81.902771"
     fy="511.22299"
     fx="171.48665"
     cy="511.22299"
     cx="171.48665"
     gradientTransform="matrix(1.1529891,-0.67391547,0.39482025,0.67549043,-233.63262,270.40076)"
     gradientUnits="userSpaceOnUse"
     id="radialGradient4013"
     xlink:href="#linearGradient3784-4-6"
     inkscape:collect="always" /><linearGradient
     id="linearGradient3784-4-6"><stop
       style="stop-color:#ffffff;stop-opacity:0.31297711;"
       offset="0"
       id="stop3786-8-8" /><stop
       style="stop-color:#000000;stop-opacity:0;"
       offset="1"
       id="stop3788-6-8" /></linearGradient><radialGradient
     r="81.902771"
     fy="492.63205"
     fx="159.35434"
     cy="492.63205"
     cx="159.35434"
     gradientTransform="matrix(1.0894779,-0.71513803,0.44645273,0.65626582,-244.93331,290.9185)"
     gradientUnits="userSpaceOnUse"
     id="radialGradient4013-8"
     xlink:href="#linearGradient3784-4-2"
     inkscape:collect="always" /><linearGradient
     id="linearGradient3784-4-2"><stop
       style="stop-color:#ffffff;stop-opacity:0.29007635;"
       offset="0"
       id="stop3786-8-1" /><stop
       style="stop-color:#000000;stop-opacity:0;"
       offset="1"
       id="stop3788-6-5" /></linearGradient><radialGradient
     r="81.902771"
     fy="492.63205"
     fx="159.35434"
     cy="492.63205"
     cx="159.35434"
     gradientTransform="matrix(1.0894779,-0.71513803,0.44645273,0.65626582,-244.93331,290.9185)"
     gradientUnits="userSpaceOnUse"
     id="radialGradient3073"
     xlink:href="#linearGradient3784-4-2"
     inkscape:collect="always" /></defs><sodipodi:namedview
   pagecolor="#ffffff"
   bordercolor="#666666"
   borderopacity="1"
   objecttolerance="10"
   gridtolerance="10"
   guidetolerance="10"
   inkscape:pageopacity="0"
   inkscape:pageshadow="2"
   inkscape:window-width="1309"
   inkscape:window-height="456"
   id="namedview39"
   showgrid="false"
   inkscape:zoom="1.7208768"
   inkscape:cx="-28.473857"
   inkscape:cy="7.5542886"
   inkscape:window-x="63"
   inkscape:window-y="25"
   inkscape:window-maximized="0"
   inkscape:current-layer="svg2"
   inkscape:showpageshadow="2"
   inkscape:pagecheckerboard="0"
   inkscape:deskcolor="#d1d1d1"
   inkscape:document-units="pt" />
	<g
   id="Layer_x0020_1"
   style="fill-rule:nonzero;clip-rule:nonzero;stroke:#000000;stroke-miterlimit:4;">
		<path
   style="fill:#FFFFFF;stroke-width:0.5;"
   d="M166.8369141,235.5478516c0,3.7773438-3.0869141,6.8691406-6.8710938,6.8691406H7.1108398c-3.7749023,0-6.8608398-3.0917969-6.8608398-6.8691406V7.1201172C0.25,3.3427734,3.3359375,0.25,7.1108398,0.25h152.8549805    c3.7841797,0,6.8710938,3.0927734,6.8710938,6.8701172v228.4277344z"
   id="path5" />
		<g
   style="stroke:none;"
   id="g7">
			<g
   id="g9">
				
			</g>
			
		</g>
		<g
   id="g15">
			
		</g>
		<g
   id="g19">
			
		</g>
		<g
   style="stroke:none;"
   id="g23">
			<g
   id="g25">
				
			</g>
			
		</g>
		<g
   style="stroke:none;"
   id="g31">
			<g
   id="g33">
				
			</g>
			
		</g>
	</g>



<g
   aria-label="6"
   id="text3788"
   style="line-height:0%;font-family:'Bitstream Vera Sans';letter-spacing:0px;word-spacing:0px;fill:#df0000"><path
     d="m 24.6973,10.716413 -2.796875,0.21875 q -0.375,-1.6562495 -1.0625,-2.4062495 -1.140625,-1.203125 -2.8125,-1.203125 -1.34375,0 -2.359375,0.75 -1.328125,0.96875 -2.09375,2.8281245 -0.765625,1.859375 -0.796875,5.296875 1.015625,-1.546875 2.484375,-2.296875 1.46875,-0.75 3.078125,-0.75 2.8125,0 4.78125,2.078125 1.984375,2.0625 1.984375,5.34375 0,2.15625 -0.9375,4.015625 -0.921875,1.84375 -2.546875,2.828125 -1.625,0.984375 -3.6875,0.984375 -3.515625,0 -5.734375,-2.578125 -2.21875,-2.59375 -2.21875,-8.53125 0,-6.640625 2.453125,-9.6562495 2.140625,-2.625 5.765625,-2.625 2.703125,0 4.421875,1.515625 1.734375,1.515625 2.078125,4.1874995 z m -11.484375,9.875 q 0,1.453125 0.609375,2.78125 0.625,1.328125 1.734375,2.03125 1.109375,0.6875 2.328125,0.6875 1.78125,0 3.0625,-1.4375 1.28125,-1.4375 1.28125,-3.90625 0,-2.375 -1.265625,-3.734375 -1.265625,-1.375 -3.1875,-1.375 -1.90625,0 -3.234375,1.375 -1.328125,1.359375 -1.328125,3.578125 z"
     style="font-size:32px;line-height:1.25;font-family:Arial;-inkscape-font-specification:Arial"
     id="path5371" /></g>








<g
   transform="matrix(1.6743072,0,0,1.5669921,17.177511,46.385321)"
   id="layer1-9-6"
   style="fill:#df0000;fill-opacity:1"><path
     style="fill:#df0000;fill-opacity:1"
     inkscape:connector-curvature="0"
     id="hl-8"
     d="M 3.676,-9 C 0.433,-9 0,-5.523 0,-5.523 0,-5.523 -0.433,-9 -3.676,-9 -5.946,-9 -8,-7.441 -8,-4.5 -8,-0.614 -1.4208493,3.2938141 0,9 1.35201,3.2985969 8,-0.614 8,-4.5 8,-7.441 5.946,-9 3.676,-9 z"
     sodipodi:nodetypes="scsscss" /></g>







<g
   transform="matrix(2.7790082,0,0,2.600887,57.712268,47.603768)"
   id="layer1-9-6-8"
   style="fill:#df0000;fill-opacity:1"><path
     style="fill:#df0000;fill-opacity:1"
     inkscape:connector-curvature="0"
     id="hl-8-8"
     d="M 3.676,-9 C 0.433,-9 0,-5.523 0,-5.523 0,-5.523 -0.433,-9 -3.676,-9 -5.946,-9 -8,-7.441 -8,-4.5 -8,-0.614 -1.4208493,3.2938141 0,9 1.35201,3.2985969 8,-0.614 8,-4.5 8,-7.441 5.946,-9 3.676,-9 z"
     sodipodi:nodetypes="scsscss" /></g><g
   transform="matrix(-2.7790082,0,0,-2.600887,57.712268,192.00617)"
   id="layer1-9-6-8-9"
   style="fill:#df0000;fill-opacity:1"><path
     style="fill:#df0000;fill-opacity:1"
     inkscape:connector-curvature="0"
     id="hl-8-8-5"
     d="M 3.676,-9 C 0.433,-9 0,-5.523 0,-5.523 0,-5.523 -0.433,-9 -3.676,-9 -5.946,-9 -8,-7.441 -8,-4.5 -8,-0.614 -1.4208493,3.2938141 0,9 1.35201,3.2985969 8,-0.614 8,-4.5 8,-7.441 5.946,-9 3.676,-9 z"
     sodipodi:nodetypes="scsscss" /></g><g
   transform="matrix(2.7790082,0,0,2.600887,57.712268,118.90457)"
   id="layer1-9-6-8-8"
   style="fill:#df0000;fill-opacity:1"><path
     style="fill:#df0000;fill-opacity:1"
     inkscape:connector-curvature="0"
     id="hl-8-8-8"
     d="M 3.676,-9 C 0.433,-9 0,-5.523 0,-5.523 0,-5.523 -0.433,-9 -3.676,-9 -5.946,-9 -8,-7.441 -8,-4.5 -8,-0.614 -1.4208493,3.2938141 0,9 1.35201,3.2985969 8,-0.614 8,-4.5 8,-7.441 5.946,-9 3.676,-9 z"
     sodipodi:nodetypes="scsscss" /></g><g
   transform="matrix(2.7790082,0,0,2.600887,109.0504,47.272778)"
   id="layer1-9-6-8-88"
   style="fill:#df0000;fill-opacity:1"><path
     style="fill:#df0000;fill-opacity:1"
     inkscape:connector-curvature="0"
     id="hl-8-8-4"
     d="M 3.676,-9 C 0.433,-9 0,-5.523 0,-5.523 0,-5.523 -0.433,-9 -3.676,-9 -5.946,-9 -8,-7.441 -8,-4.5 -8,-0.614 -1.4208493,3.2938141 0,9 1.35201,3.2985969 8,-0.614 8,-4.5 8,-7.441 5.946,-9 3.676,-9 z"
     sodipodi:nodetypes="scsscss" /></g><g
   transform="matrix(-2.7790082,0,0,-2.600887,109.0504,191.67518)"
   id="layer1-9-6-8-9-3"
   style="fill:#df0000;fill-opacity:1"><path
     style="fill:#df0000;fill-opacity:1"
     inkscape:connector-curvature="0"
     id="hl-8-8-5-1"
     d="M 3.676,-9 C 0.433,-9 0,-5.523 0,-5.523 0,-5.523 -0.433,-9 -3.676,-9 -5.946,-9 -8,-7.441 -8,-4.5 -8,-0.614 -1.4208493,3.2938141 0,9 1.35201,3.2985969 8,-0.614 8,-4.5 8,-7.441 5.946,-9 3.676,-9 z"
     sodipodi:nodetypes="scsscss" /></g><g
   transform="matrix(2.7790082,0,0,2.600887,109.0504,118.57358)"
   id="layer1-9-6-8-8-4"
   style="fill:#df0000;fill-opacity:1"><path
     style="fill:#df0000;fill-opacity:1"
     inkscape:connector-curvature="0"
     id="hl-8-8-8-9"
     d="M 3.676,-9 C 0.433,-9 0,-5.523 0,-5.523 0,-5.523 -0.433,-9 -3.676,-9 -5.946,-9 -8,-7.441 -8,-4.5 -8,-0.614 -1.4208493,3.2938141 0,9 1.35201,3.2985969 8,-0.614 8,-4.5 8,-7.441 5.946,-9 3.676,-9 z"
     sodipodi:nodetypes="scsscss" /></g></svg>
