<?xml version="1.0" encoding="UTF-8" standalone="no"?>
<!-- Generator: Adobe Illustrator 9.0, SVG Export Plug-In  -->

<!-- This set of SVG files is a complete cards game with figures, numbers	-->

<!--    and backs of cards completely designed in SVG.				-->

<!--    									-->

<!--    Copyright (C) 2004 David Bellot						-->

<!--										-->

<!--    This library is free software; you can redistribute it and/or		-->

<!--    modify it under the terms of the GNU Lesser General Public		-->

<!--    License as published by the Free Software Foundation; either		-->

<!--    version 2 of the License, or (at your option) any later version		-->

<!--										-->

<!--    This library is distributed in the hope that it will be useful,		-->

<!--    but WITHOUT ANY WARRANTY; without even the implied warranty of		-->

<!--    MERCHANTABILITY or FITNESS FOR A PARTICULAR PURPOSE.  See the GNU	-->

<!--    Lesser General Public License for more details.				-->

<!--										-->

<!--    You should have received a copy of the GNU Lesser General Public	-->

<!--    License along with this library; if not, write to the Free Software	-->

<!--    Foundation, Inc., 59 Temple Place, Suite 330, Boston, MA 02111-1307  USA-->

<!--										-->

<!--    Contact the author David Bellot at bellot@stat.berkeley.edu or 		-->

<!--    david.bellot@free.fr or yimyom@users.sourceforge.net			-->

<svg
   width="167.0869141pt"
   height="242.6669922pt"
   viewBox="0 0 167.0869141 242.6669922"
   xml:space="preserve"
   id="svg2"
   version="1.1"
   inkscape:version="1.2.2 (b0a84865, 2022-12-01)"
   sodipodi:docname="9H.svg"
   inkscape:export-filename="/home/byron/art/cards/final/PNGs/9_of_hearts.png"
   inkscape:export-xdpi="215.44792"
   inkscape:export-ydpi="215.44792"
   xmlns:inkscape="http://www.inkscape.org/namespaces/inkscape"
   xmlns:sodipodi="http://sodipodi.sourceforge.net/DTD/sodipodi-0.dtd"
   xmlns:xlink="http://www.w3.org/1999/xlink"
   xmlns="http://www.w3.org/2000/svg"
   xmlns:svg="http://www.w3.org/2000/svg"
   xmlns:rdf="http://www.w3.org/1999/02/22-rdf-syntax-ns#"
   xmlns:cc="http://creativecommons.org/ns#"
   xmlns:dc="http://purl.org/dc/elements/1.1/"><metadata
   id="metadata43"><rdf:RDF><cc:Work
       rdf:about=""><dc:format>image/svg+xml</dc:format><dc:type
         rdf:resource="http://purl.org/dc/dcmitype/StillImage" /><dc:title /></cc:Work></rdf:RDF></metadata><defs
   id="defs41"><radialGradient
     inkscape:collect="always"
     xlink:href="#linearGradient3773"
     id="radialGradient3781"
     cx="-0.15782039"
     cy="-8.8345356"
     fx="-0.15782039"
     fy="-8.8345356"
     r="7.9997029"
     gradientTransform="matrix(-1.5842693,-0.02349808,0.03071979,-2.4775745,-0.24856378,-26.713507)"
     gradientUnits="userSpaceOnUse" /><linearGradient
     id="linearGradient3773"><stop
       style="stop-color:#000000;stop-opacity:1;"
       offset="0"
       id="stop3775" /><stop
       style="stop-color:#000000;stop-opacity:0.64885497;"
       offset="1"
       id="stop3777" /></linearGradient><radialGradient
     inkscape:collect="always"
     xlink:href="#linearGradient3773"
     id="radialGradient3957"
     cx="-0.15782039"
     cy="-8.8345356"
     fx="-0.15782039"
     fy="-8.8345356"
     r="7.9997029"
     gradientTransform="matrix(-1.5842693,-0.02349808,0.03071979,-2.4775745,-0.24856378,-26.713507)"
     gradientUnits="userSpaceOnUse" /><linearGradient
     id="linearGradient3959"><stop
       style="stop-color:#000000;stop-opacity:1;"
       offset="0"
       id="stop3961" /><stop
       style="stop-color:#000000;stop-opacity:0.64885497;"
       offset="1"
       id="stop3963" /></linearGradient><radialGradient
     r="81.902771"
     fy="509.47577"
     fx="168.02475"
     cy="509.47577"
     cx="168.02475"
     gradientTransform="matrix(1.2565605,-0.77740644,0.33663816,0.5361257,-221.20213,359.24256)"
     gradientUnits="userSpaceOnUse"
     id="radialGradient3975"
     xlink:href="#linearGradient3784-4"
     inkscape:collect="always" /><linearGradient
     id="linearGradient3784-4"><stop
       style="stop-color:#ffffff;stop-opacity:0.4351145;"
       offset="0"
       id="stop3786-8" /><stop
       style="stop-color:#000000;stop-opacity:0;"
       offset="1"
       id="stop3788-6" /></linearGradient><radialGradient
     inkscape:collect="always"
     xlink:href="#linearGradient3784-4-5"
     id="radialGradient3929"
     gradientUnits="userSpaceOnUse"
     gradientTransform="matrix(1.2565605,-0.77740644,0.33663816,0.5361257,-221.20213,359.24256)"
     cx="168.02475"
     cy="509.47577"
     fx="168.02475"
     fy="509.47577"
     r="81.902771" /><linearGradient
     id="linearGradient3784-4-5"><stop
       style="stop-color:#ffffff;stop-opacity:0.48854962;"
       offset="0"
       id="stop3786-8-0" /><stop
       style="stop-color:#000000;stop-opacity:0;"
       offset="1"
       id="stop3788-6-3" /></linearGradient><radialGradient
     inkscape:collect="always"
     xlink:href="#linearGradient3784-4-1"
     id="radialGradient3927"
     gradientUnits="userSpaceOnUse"
     gradientTransform="matrix(1.2565605,-0.77740644,0.33663816,0.5361257,-221.20213,359.24256)"
     cx="168.02475"
     cy="509.47577"
     fx="168.02475"
     fy="509.47577"
     r="81.902771" /><linearGradient
     id="linearGradient3784-4-1"><stop
       style="stop-color:#ffffff;stop-opacity:0.23664123;"
       offset="0"
       id="stop3786-8-03" /><stop
       style="stop-color:#000000;stop-opacity:0;"
       offset="1"
       id="stop3788-6-6" /></linearGradient><radialGradient
     inkscape:collect="always"
     xlink:href="#linearGradient3768"
     id="radialGradient3776"
     cx="-0.20602037"
     cy="-4.5786963"
     fx="-0.20602037"
     fy="-4.5786963"
     r="8"
     gradientTransform="matrix(-1,0,0,-1.7201755,-0.41204074,-13.027194)"
     gradientUnits="userSpaceOnUse" /><linearGradient
     id="linearGradient3768"><stop
       style="stop-color:#df0000;stop-opacity:1;"
       offset="0"
       id="stop3770" /><stop
       style="stop-color:#df0000;stop-opacity:0.67175573;"
       offset="1"
       id="stop3772" /></linearGradient><radialGradient
     r="81.902771"
     fy="511.22299"
     fx="171.48665"
     cy="511.22299"
     cx="171.48665"
     gradientTransform="matrix(1.1529891,-0.67391547,0.39482025,0.67549043,-233.63262,270.40076)"
     gradientUnits="userSpaceOnUse"
     id="radialGradient4013"
     xlink:href="#linearGradient3784-4-6"
     inkscape:collect="always" /><linearGradient
     id="linearGradient3784-4-6"><stop
       style="stop-color:#ffffff;stop-opacity:0.31297711;"
       offset="0"
       id="stop3786-8-8" /><stop
       style="stop-color:#000000;stop-opacity:0;"
       offset="1"
       id="stop3788-6-8" /></linearGradient><radialGradient
     r="81.902771"
     fy="492.63205"
     fx="159.35434"
     cy="492.63205"
     cx="159.35434"
     gradientTransform="matrix(1.0894779,-0.71513803,0.44645273,0.65626582,-244.93331,290.9185)"
     gradientUnits="userSpaceOnUse"
     id="radialGradient4013-8"
     xlink:href="#linearGradient3784-4-2"
     inkscape:collect="always" /><linearGradient
     id="linearGradient3784-4-2"><stop
       style="stop-color:#ffffff;stop-opacity:0.29007635;"
       offset="0"
       id="stop3786-8-1" /><stop
       style="stop-color:#000000;stop-opacity:0;"
       offset="1"
       id="stop3788-6-5" /></linearGradient><radialGradient
     r="81.902771"
     fy="492.63205"
     fx="159.35434"
     cy="492.63205"
     cx="159.35434"
     gradientTransform="matrix(1.0894779,-0.71513803,0.44645273,0.65626582,-244.93331,290.9185)"
     gradientUnits="userSpaceOnUse"
     id="radialGradient3073"
     xlink:href="#linearGradient3784-4-2"
     inkscape:collect="always" /></defs><sodipodi:namedview
   pagecolor="#ffffff"
   bordercolor="#666666"
   borderopacity="1"
   objecttolerance="10"
   gridtolerance="10"
   guidetolerance="10"
   inkscape:pageopacity="0"
   inkscape:pageshadow="2"
   inkscape:window-width="1309"
   inkscape:window-height="456"
   id="namedview39"
   showgrid="false"
   inkscape:zoom="1.7208768"
   inkscape:cx="0"
   inkscape:cy="54.042218"
   inkscape:window-x="63"
   inkscape:window-y="25"
   inkscape:window-maximized="0"
   inkscape:current-layer="svg2"
   inkscape:showpageshadow="2"
   inkscape:pagecheckerboard="0"
   inkscape:deskcolor="#d1d1d1"
   inkscape:document-units="pt" />
	<g
   id="Layer_x0020_1"
   style="fill-rule:nonzero;clip-rule:nonzero;stroke:#000000;stroke-miterlimit:4;">
		<path
   style="fill:#FFFFFF;stroke-width:0.5;"
   d="M166.8369141,235.5478516c0,3.7773438-3.0869141,6.8691406-6.8710938,6.8691406H7.1108398c-3.7749023,0-6.8608398-3.0917969-6.8608398-6.8691406V7.1201172C0.25,3.3427734,3.3359375,0.25,7.1108398,0.25h152.8549805    c3.7841797,0,6.8710938,3.0927734,6.8710938,6.8701172v228.4277344z"
   id="path5" />
		<g
   style="stroke:none;"
   id="g7">
			<g
   id="g9">
				
			</g>
			
		</g>
		<g
   id="g15">
			
		</g>
		<g
   id="g19">
			
		</g>
		<g
   style="stroke:none;"
   id="g23">
			<g
   id="g25">
				
			</g>
			
		</g>
		<g
   style="stroke:none;"
   id="g31">
			<g
   id="g33">
				
			</g>
			
		</g>
	</g>















<g
   transform="matrix(1.6743072,0,0,1.5669921,17.177511,46.385321)"
   id="layer1-9-6"
   style="fill:#df0000;fill-opacity:1"><path
     style="fill:#df0000;fill-opacity:1"
     inkscape:connector-curvature="0"
     id="hl-8"
     d="M 3.676,-9 C 0.433,-9 0,-5.523 0,-5.523 0,-5.523 -0.433,-9 -3.676,-9 -5.946,-9 -8,-7.441 -8,-4.5 -8,-0.614 -1.4208493,3.2938141 0,9 1.35201,3.2985969 8,-0.614 8,-4.5 8,-7.441 5.946,-9 3.676,-9 z"
     sodipodi:nodetypes="scsscss" /></g>









<g
   transform="matrix(2.7790082,0,0,2.600887,54.512268,30.003768)"
   id="layer1-9-6-8"
   style="fill:#df0000;fill-opacity:1"><path
     style="fill:#df0000;fill-opacity:1"
     inkscape:connector-curvature="0"
     id="hl-8-8"
     d="M 3.676,-9 C 0.433,-9 0,-5.523 0,-5.523 0,-5.523 -0.433,-9 -3.676,-9 -5.946,-9 -8,-7.441 -8,-4.5 -8,-0.614 -1.4208493,3.2938141 0,9 1.35201,3.2985969 8,-0.614 8,-4.5 8,-7.441 5.946,-9 3.676,-9 z"
     sodipodi:nodetypes="scsscss" /></g><g
   transform="matrix(-2.7790082,0,0,-2.600887,54.512268,212.80617)"
   id="layer1-9-6-8-9"
   style="fill:#df0000;fill-opacity:1"><path
     style="fill:#df0000;fill-opacity:1"
     inkscape:connector-curvature="0"
     id="hl-8-8-5"
     d="M 3.676,-9 C 0.433,-9 0,-5.523 0,-5.523 0,-5.523 -0.433,-9 -3.676,-9 -5.946,-9 -8,-7.441 -8,-4.5 -8,-0.614 -1.4208493,3.2938141 0,9 1.35201,3.2985969 8,-0.614 8,-4.5 8,-7.441 5.946,-9 3.676,-9 z"
     sodipodi:nodetypes="scsscss" /></g><g
   transform="matrix(2.7790082,0,0,2.600887,54.512268,95.238623)"
   id="layer1-9-6-8-8"
   style="fill:#df0000;fill-opacity:1"><path
     style="fill:#df0000;fill-opacity:1"
     inkscape:connector-curvature="0"
     id="hl-8-8-8"
     d="M 3.676,-9 C 0.433,-9 0,-5.523 0,-5.523 0,-5.523 -0.433,-9 -3.676,-9 -5.946,-9 -8,-7.441 -8,-4.5 -8,-0.614 -1.4208493,3.2938141 0,9 1.35201,3.2985969 8,-0.614 8,-4.5 8,-7.441 5.946,-9 3.676,-9 z"
     sodipodi:nodetypes="scsscss" /></g><g
   transform="matrix(-2.7790082,0,0,-2.600887,54.512268,145.35601)"
   id="layer1-9-6-8-884-8"
   style="fill:#df0000;fill-opacity:1"><path
     style="fill:#df0000;fill-opacity:1"
     inkscape:connector-curvature="0"
     id="hl-8-8-3-8"
     d="M 3.676,-9 C 0.433,-9 0,-5.523 0,-5.523 0,-5.523 -0.433,-9 -3.676,-9 -5.946,-9 -8,-7.441 -8,-4.5 -8,-0.614 -1.4208493,3.2938141 0,9 1.35201,3.2985969 8,-0.614 8,-4.5 8,-7.441 5.946,-9 3.676,-9 z"
     sodipodi:nodetypes="scsscss" /></g><g
   transform="matrix(2.7790082,0,0,2.600887,111.99088,30.602538)"
   id="layer1-9-6-8-7"
   style="fill:#df0000;fill-opacity:1"><path
     style="fill:#df0000;fill-opacity:1"
     inkscape:connector-curvature="0"
     id="hl-8-8-1"
     d="M 3.676,-9 C 0.433,-9 0,-5.523 0,-5.523 0,-5.523 -0.433,-9 -3.676,-9 -5.946,-9 -8,-7.441 -8,-4.5 -8,-0.614 -1.4208493,3.2938141 0,9 1.35201,3.2985969 8,-0.614 8,-4.5 8,-7.441 5.946,-9 3.676,-9 z"
     sodipodi:nodetypes="scsscss" /></g><g
   transform="matrix(-2.7790082,0,0,-2.600887,111.99088,213.40494)"
   id="layer1-9-6-8-9-7"
   style="fill:#df0000;fill-opacity:1"><path
     style="fill:#df0000;fill-opacity:1"
     inkscape:connector-curvature="0"
     id="hl-8-8-5-2"
     d="M 3.676,-9 C 0.433,-9 0,-5.523 0,-5.523 0,-5.523 -0.433,-9 -3.676,-9 -5.946,-9 -8,-7.441 -8,-4.5 -8,-0.614 -1.4208493,3.2938141 0,9 1.35201,3.2985969 8,-0.614 8,-4.5 8,-7.441 5.946,-9 3.676,-9 z"
     sodipodi:nodetypes="scsscss" /></g><g
   transform="matrix(2.7790082,0,0,2.600887,111.99088,95.837397)"
   id="layer1-9-6-8-8-7"
   style="fill:#df0000;fill-opacity:1"><path
     style="fill:#df0000;fill-opacity:1"
     inkscape:connector-curvature="0"
     id="hl-8-8-8-2"
     d="M 3.676,-9 C 0.433,-9 0,-5.523 0,-5.523 0,-5.523 -0.433,-9 -3.676,-9 -5.946,-9 -8,-7.441 -8,-4.5 -8,-0.614 -1.4208493,3.2938141 0,9 1.35201,3.2985969 8,-0.614 8,-4.5 8,-7.441 5.946,-9 3.676,-9 z"
     sodipodi:nodetypes="scsscss" /></g><g
   transform="matrix(-2.7790082,0,0,-2.600887,111.99088,145.95478)"
   id="layer1-9-6-8-884-8-2"
   style="fill:#df0000;fill-opacity:1"><path
     style="fill:#df0000;fill-opacity:1"
     inkscape:connector-curvature="0"
     id="hl-8-8-3-8-6"
     d="M 3.676,-9 C 0.433,-9 0,-5.523 0,-5.523 0,-5.523 -0.433,-9 -3.676,-9 -5.946,-9 -8,-7.441 -8,-4.5 -8,-0.614 -1.4208493,3.2938141 0,9 1.35201,3.2985969 8,-0.614 8,-4.5 8,-7.441 5.946,-9 3.676,-9 z"
     sodipodi:nodetypes="scsscss" /></g><g
   transform="matrix(2.7790082,0,0,2.600887,83.213391,62.704546)"
   id="layer1-9-6-8-91"
   style="fill:#df0000;fill-opacity:1"><path
     style="fill:#df0000;fill-opacity:1"
     inkscape:connector-curvature="0"
     id="hl-8-8-7"
     d="M 3.676,-9 C 0.433,-9 0,-5.523 0,-5.523 0,-5.523 -0.433,-9 -3.676,-9 -5.946,-9 -8,-7.441 -8,-4.5 -8,-0.614 -1.4208493,3.2938141 0,9 1.35201,3.2985969 8,-0.614 8,-4.5 8,-7.441 5.946,-9 3.676,-9 z"
     sodipodi:nodetypes="scsscss" /></g>



<g
   aria-label="9"
   id="text3788-43"
   style="line-height:0%;font-family:'Bitstream Vera Sans';letter-spacing:0px;word-spacing:0px;fill:#df0000"><path
     d="m 10.493875,22.716291 2.703125,-0.25 q 0.34375,1.90625 1.3125,2.765625 0.96875,0.859375 2.484375,0.859375 1.296875,0 2.265625,-0.59375 0.984375,-0.59375 1.609375,-1.578125 0.625,-1 1.046875,-2.6875 0.421875,-1.6875 0.421875,-3.4375 0,-0.1875 -0.01563,-0.5625 -0.84375,1.34375 -2.3125,2.1875 -1.453125,0.828125 -3.15625,0.828125 -2.84375,0 -4.8125,-2.0625 -1.96875,-2.0625 -1.96875,-5.4375 0,-3.4843746 2.046875,-5.6093746 2.0625,-2.125 5.15625,-2.125 2.234375,0 4.078125,1.203125 1.859375,1.203125 2.8125,3.4375 0.96875,2.2187496 0.96875,6.4374996 0,4.390625 -0.953125,7 -0.953125,2.59375 -2.84375,3.953125 -1.875,1.359375 -4.40625,1.359375 -2.6875,0 -4.390625,-1.484375 -1.703125,-1.5 -2.046875,-4.203125 z M 22.0095,12.606916 q 0,-2.421875 -1.296875,-3.8437496 -1.28125,-1.421875 -3.09375,-1.421875 -1.875,0 -3.265625,1.53125 -1.390625,1.5312496 -1.390625,3.9687496 0,2.1875 1.3125,3.5625 1.328125,1.359375 3.265625,1.359375 1.953125,0 3.203125,-1.359375 1.265625,-1.375 1.265625,-3.796875 z"
     style="font-size:32px;line-height:1.25;font-family:Arial;-inkscape-font-specification:Arial"
     id="path4681" /></g>
</svg>
