<?xml version="1.0" encoding="UTF-8" standalone="no"?>
<!-- Generator: Adobe Illustrator 9.0, SVG Export Plug-In  -->

<!-- This set of SVG files is a complete cards game with figures, numbers	-->

<!--    and backs of cards completely designed in SVG.				-->

<!--    									-->

<!--    Copyright (C) 2004 David Bellot						-->

<!--										-->

<!--    This library is free software; you can redistribute it and/or		-->

<!--    modify it under the terms of the GNU Lesser General Public		-->

<!--    License as published by the Free Software Foundation; either		-->

<!--    version 2 of the License, or (at your option) any later version		-->

<!--										-->

<!--    This library is distributed in the hope that it will be useful,		-->

<!--    but WITHOUT ANY WARRANTY; without even the implied warranty of		-->

<!--    MERCHANTABILITY or FITNESS FOR A PARTICULAR PURPOSE.  See the GNU	-->

<!--    Lesser General Public License for more details.				-->

<!--										-->

<!--    You should have received a copy of the GNU Lesser General Public	-->

<!--    License along with this library; if not, write to the Free Software	-->

<!--    Foundation, Inc., 59 Temple Place, Suite 330, Boston, MA 02111-1307  USA-->

<!--										-->

<!--    Contact the author David Bellot at bellot@stat.berkeley.edu or 		-->

<!--    david.bellot@free.fr or yimyom@users.sourceforge.net			-->

<svg
   width="222.78267"
   height="323.556"
   viewBox="0 0 167.08701 242.66699"
   xml:space="preserve"
   id="svg2"
   version="1.1"
   inkscape:version="1.2.2 (b0a84865, 2022-12-01)"
   sodipodi:docname="back.svg"
   xmlns:inkscape="http://www.inkscape.org/namespaces/inkscape"
   xmlns:sodipodi="http://sodipodi.sourceforge.net/DTD/sodipodi-0.dtd"
   xmlns="http://www.w3.org/2000/svg"
   xmlns:svg="http://www.w3.org/2000/svg"><defs
     id="defs41" /><sodipodi:namedview
     pagecolor="#ffffff"
     bordercolor="#666666"
     borderopacity="1"
     objecttolerance="10"
     gridtolerance="10"
     guidetolerance="10"
     inkscape:pageopacity="0"
     inkscape:pageshadow="2"
     inkscape:window-width="1524"
     inkscape:window-height="1056"
     id="namedview39"
     showgrid="false"
     inkscape:zoom="2.4336873"
     inkscape:cx="114.43541"
     inkscape:cy="161.89426"
     inkscape:window-x="63"
     inkscape:window-y="25"
     inkscape:window-maximized="0"
     inkscape:current-layer="svg2"
     inkscape:showpageshadow="2"
     inkscape:pagecheckerboard="0"
     inkscape:deskcolor="#d1d1d1"
     inkscape:document-units="pt" /><g
     id="Layer_x0020_1"
     style="clip-rule:nonzero;fill-rule:nonzero;stroke:#000000;stroke-miterlimit:4"><path
   style="fill:#03076c;stroke-width:0.5"
   d="m 166.83691,235.54785 c 0,3.77735 -3.08691,6.86914 -6.87109,6.86914 H 7.1108398 C 3.3359375,242.41699 0.25,239.3252 0.25,235.54785 V 7.1201172 C 0.25,3.3427734 3.3359375,0.25 7.1108398,0.25 H 159.96582 c 3.78418,0 6.87109,3.0927734 6.87109,6.8701172 z"
   id="path5" />
		<g
   style="stroke:none"
   id="g7">
			<g
   id="g9">
				
			</g>
			
		</g>
		<g
   id="g15">
			
		</g>
		<g
   id="g19">
			
		</g>
		<g
   style="stroke:none"
   id="g23">
			<g
   id="g25">
				
			</g>
			
		</g>
		<g
   style="stroke:none"
   id="g31">
			<g
   id="g33">
				
			</g>
			
		</g>
	</g><path
     class="cls-2"
     d="m 65.896707,41.293474 c -2.175492,-0.414046 -3.462073,0.991836 -2.85855,3.122883 l 2.339239,8.23412 c 0.603524,2.131046 2.435148,2.652696 4.072615,1.169619 l 7.770951,-7.090232 c 1.637466,-1.492435 1.193011,-3.04101 -0.982481,-3.464412 z"
     id="path314"
     style="fill:#006cff;stroke-width:0.233923" /><path
     class="cls-2"
     d="m 36.593066,78.192623 c -1.44565,1.677234 -0.870196,3.494821 1.274885,4.037526 l 8.299618,2.105314 c 2.145083,0.542703 3.508858,-0.781305 3.041011,-2.945101 L 46.948875,71.107069 c -0.467848,-2.163796 -2.046834,-2.559127 -3.492483,-0.881893 z"
     id="path316"
     style="fill:#006cff;stroke-width:0.233923" /><path
     class="cls-2"
     d="m 53.894074,122.02997 c 0.729843,2.08893 2.589538,2.50064 4.133435,0.91229 l 5.967397,-6.13582 c 1.543898,-1.58834 1.078389,-3.43634 -1.031604,-4.10536 l -10.025977,-3.18605 c -2.105314,-0.67136 -3.239845,0.49124 -2.510003,2.57317 z"
     id="path318"
     style="fill:#006cff;stroke-width:0.233923" /><path
     class="cls-2"
     d="m 100.51745,128.96346 c 2.17549,0.41406 3.46207,-0.99183 2.85855,-3.12288 l -2.33924,-8.23412 c -0.60352,-2.13104 -2.435153,-2.65269 -4.072626,-1.16962 l -7.77095,7.09024 c -1.637467,1.49243 -1.193012,3.04101 0.98248,3.4644 z"
     id="path320"
     style="fill:#006cff;stroke-width:0.233923" /><path
     class="cls-2"
     d="m 129.82109,92.064307 c 1.44565,-1.677234 0.87019,-3.494822 -1.27488,-4.037525 l -8.29962,-2.105315 c -2.14509,-0.542704 -3.50886,0.781306 -3.04101,2.945101 l 2.2597,10.283294 c 0.46785,2.163798 2.04684,2.559138 3.49249,0.881898 z"
     id="path322"
     style="fill:#006cff;stroke-width:0.233923" /><path
     class="cls-2"
     d="m 112.52008,48.226977 c -0.72984,-2.088941 -2.58953,-2.500647 -4.13343,-0.912303 l -5.9674,6.135822 c -1.54389,1.588343 -1.07838,3.436342 1.0316,4.105365 l 10.02599,3.186042 c 2.1053,0.671362 3.23984,-0.49124 2.50999,-2.573162 z"
     id="path324"
     style="fill:#006cff;stroke-width:0.233923" /><path
     class="cls-2"
     d="m 76.832647,22.01113 c -2.641,-1.321671 -4.802456,0.01402 -4.802456,2.968494 v 11.614319 c 0,2.952119 2.161456,4.287824 4.802456,2.968495 l 12.748851,-6.36507 c 2.641001,-1.321671 2.641001,-3.483132 0,-4.802452 z"
     id="path326"
     style="fill:#006cff;stroke-width:0.233923" /><path
     class="cls-2"
     d="m 25.357703,59.090401 c -2.463218,1.62577 -2.388362,4.166183 0.170765,5.642243 l 10.058725,5.808329 c 2.556788,1.487756 4.7931,0.271352 4.970882,-2.676089 l 0.853822,-14.227249 c 0.177783,-2.94744 -1.693609,-4.028169 -4.159166,-2.400058 z"
     id="path328"
     style="fill:#006cff;stroke-width:0.233923" /><path
     class="cls-2"
     d="m 31.743824,122.20774 c 0.177782,2.94744 2.414095,4.15215 4.973222,2.67376 l 10.058725,-5.806 c 2.556789,-1.47606 2.633984,-4.01647 0.168426,-5.64458 l -11.906725,-7.85283 c -2.463218,-1.62577 -4.334609,-0.54504 -4.159166,2.4024 z"
     id="path330"
     style="fill:#006cff;stroke-width:0.233923" /><path
     class="cls-2"
     d="m 89.581498,148.24581 c 2.641001,1.32167 4.802456,-0.014 4.802456,-2.9685 v -11.61432 c 0,-2.95211 -2.161455,-4.28782 -4.802456,-2.96849 l -12.748851,6.36507 c -2.641,1.32167 -2.641,3.48312 0,4.80246 z"
     id="path332"
     style="fill:#006cff;stroke-width:0.233923" /><path
     class="cls-2"
     d="m 141.05645,111.16653 c 2.46322,-1.62577 2.38837,-4.16618 -0.17076,-5.64224 l -10.05873,-5.808334 c -2.55678,-1.476054 -4.79309,-0.271354 -4.97088,2.676104 l -0.85382,14.22725 c -0.17779,2.94743 1.69361,4.02816 4.15917,2.40005 z"
     id="path334"
     style="fill:#006cff;stroke-width:0.233923" /><path
     class="cls-2"
     d="m 134.68203,48.049194 c -0.17779,-2.94744 -2.4141,-4.152148 -4.97322,-2.673749 l -10.05873,5.80599 c -2.55678,1.476059 -2.63398,4.016472 -0.16843,5.644582 l 11.89504,7.852825 c 2.46321,1.62577 4.33461,0.545042 4.15917,-2.402399 z"
     id="path336"
     style="fill:#006cff;stroke-width:0.233923" /><path
     class="cls-3"
     d="m 46.127802,33.665219 c -2.947441,0.177782 -4.152148,2.414092 -2.67375,4.973219 l 5.805991,10.058726 c 1.476059,2.556787 4.016472,2.633982 5.644582,0.168425 l 7.852824,-11.895028 c 1.625771,-2.463219 0.545043,-4.334612 -2.402398,-4.159163 z"
     id="path338"
     style="fill:#00e0e8;stroke-width:0.233923" /><path
     class="cls-3"
     d="m 20.089738,91.50289 c -1.321671,2.641001 0.01403,4.802451 2.968494,4.802451 h 11.614319 c 2.952119,0 4.287824,-2.16145 2.968494,-4.802451 L 31.275976,78.75404 c -1.321669,-2.641001 -3.483126,-2.641001 -4.802456,0 z"
     id="path340"
     style="fill:#00e0e8;stroke-width:0.233923" /><path
     class="cls-3"
     d="m 57.169008,142.97785 c 1.625771,2.46321 4.166185,2.38836 5.642243,-0.17077 l 5.80833,-10.05873 c 1.476059,-2.55678 0.271352,-4.79309 -2.676089,-4.97088 l -14.227249,-0.85382 c -2.947441,-0.17778 -4.028169,1.6936 -2.400059,4.15916 z"
     id="path342"
     style="fill:#00e0e8;stroke-width:0.233923" /><path
     class="cls-3"
     d="m 120.28636,136.60342 c 2.94743,-0.17779 4.15214,-2.4141 2.67375,-4.97322 l -5.80599,-10.05873 c -1.47606,-2.55679 -4.01648,-2.63398 -5.64459,-0.16842 l -7.85282,11.89502 c -1.62577,2.46322 -0.54504,4.33462 2.40239,4.15917 z"
     id="path344"
     style="fill:#00e0e8;stroke-width:0.233923" /><path
     class="cls-3"
     d="m 146.32442,78.75404 c 1.32167,-2.641001 -0.014,-4.802457 -2.96849,-4.802457 h -11.61432 c -2.95212,0 -4.28783,2.161456 -2.9685,4.802457 l 6.36507,12.74885 c 1.32167,2.641001 3.48312,2.641001 4.80246,0 z"
     id="path346"
     style="fill:#00e0e8;stroke-width:0.233923" /><path
     class="cls-3"
     d="m 109.24515,27.279099 c -1.62577,-2.463218 -4.16618,-2.388366 -5.64224,0.170762 l -5.808344,10.058725 c -1.476061,2.556787 -0.271351,4.793099 2.676094,4.970882 l 14.22726,0.853821 c 2.94743,0.177782 4.02817,-1.693608 2.40005,-4.159166 z"
     id="path348"
     style="fill:#00e0e8;stroke-width:0.233923" /><path
     class="cls-3"
     d="m 79.401132,51.597819 c -2.093619,-0.935695 -3.724068,0.173105 -3.623481,2.463218 l 0.166086,3.784888 c 0.100587,2.290116 1.822266,3.251542 3.824655,2.138064 l 4.561516,-2.535734 c 2.002387,-1.113478 1.929871,-2.790712 -0.163747,-3.724068 z"
     id="path350"
     style="fill:#00e0e8;stroke-width:0.233923" /><path
     class="cls-3"
     d="m 52.265964,71.65913 c -1.857355,1.345062 -1.712322,3.312361 0.322815,4.369697 l 3.359147,1.747411 c 2.032798,1.059676 3.726407,0.04912 3.763835,-2.24333 l 0.08421,-5.216502 c 0.03742,-2.292453 -1.450328,-3.066741 -3.305344,-1.721679 z"
     id="path352"
     style="fill:#00e0e8;stroke-width:0.233923" /><path
     class="cls-3"
     d="m 56.071906,105.18978 c 0.233923,2.28076 2.011745,3.13692 3.943956,1.90648 l 3.195399,-2.03748 c 1.932211,-1.23043 1.904141,-3.20242 -0.06082,-4.37905 l -4.477302,-2.685458 c -1.964961,-1.169615 -3.3802,-0.276024 -3.141598,2.002394 z"
     id="path354"
     style="fill:#00e0e8;stroke-width:0.233923" /><path
     class="cls-3"
     d="m 87.013014,118.65912 c 2.105314,0.93569 3.724068,-0.17311 3.62348,-2.46322 l -0.166085,-3.78489 c -0.100588,-2.29011 -1.822267,-3.25154 -3.824656,-2.13807 l -4.561515,2.53574 c -2.002388,1.11348 -1.929872,2.79071 0.163747,3.72407 z"
     id="path356"
     style="fill:#00e0e8;stroke-width:0.233923" /><path
     class="cls-3"
     d="m 114.1482,98.597792 c 1.85735,-1.345051 1.71232,-3.312355 -0.32282,-4.369687 l -3.35915,-1.747413 c -2.03279,-1.059675 -3.7264,-0.04912 -3.76384,2.243327 l -0.0842,5.216507 c -0.0374,2.292454 1.45033,3.066744 3.30535,1.721684 z"
     id="path358"
     style="fill:#00e0e8;stroke-width:0.233923" /><path
     class="cls-3"
     d="m 110.34225,65.067155 c -0.23392,-2.280757 -2.01174,-3.136919 -3.94396,-1.90648 l -3.19539,2.037477 c -1.93222,1.23044 -1.90415,3.202418 0.0608,4.379055 l 4.4773,2.685446 c 1.96496,1.169619 3.3802,0.27603 3.1416,-2.002389 z"
     id="path360"
     style="fill:#00e0e8;stroke-width:0.233923" /><path
     class="cls-3"
     d="m 90.142915,38.514458 c -1.677234,-1.445649 -3.494822,-0.870197 -4.037526,1.274886 l -2.105314,8.299618 c -0.542704,2.145081 0.781305,3.508857 2.945101,3.041009 l 10.283291,-2.259704 c 2.163807,-0.467847 2.559139,-2.046834 0.881896,-3.492483 z"
     id="path362"
     style="fill:#00e0e8;stroke-width:0.233923" /><path
     class="cls-3"
     d="m 46.305584,55.815467 c -2.08894,0.729842 -2.500645,2.589537 -0.912303,4.133434 l 6.135823,5.967398 c 1.588343,1.543897 3.436341,1.078388 4.105364,-1.031605 l 3.186043,-10.025976 c 0.671361,-2.105315 -0.491241,-3.239846 -2.573163,-2.510003 z"
     id="path364"
     style="fill:#00e0e8;stroke-width:0.233923" /><path
     class="cls-3"
     d="m 39.372081,102.43883 c -0.414045,2.1755 0.991838,3.46208 3.122884,2.85856 l 8.23412,-2.33924 c 2.131046,-0.60353 2.652696,-2.43515 1.169619,-4.072628 l -7.090233,-7.770946 c -1.492433,-1.637466 -3.04101,-1.193011 -3.464411,0.98248 z"
     id="path366"
     style="fill:#00e0e8;stroke-width:0.233923" /><path
     class="cls-3"
     d="m 76.27123,131.74248 c 1.677235,1.44565 3.494823,0.87019 4.037526,-1.27488 l 2.105315,-8.29962 c 0.542703,-2.14509 -0.781306,-3.50886 -2.945102,-3.04101 l -10.283292,2.2597 c -2.163796,0.46785 -2.559127,2.04684 -0.881893,3.49248 z"
     id="path368"
     style="fill:#00e0e8;stroke-width:0.233923" /><path
     class="cls-3"
     d="m 120.10858,114.44147 c 2.08893,-0.72984 2.50064,-2.58953 0.9123,-4.13344 l -6.13583,-5.9674 c -1.58834,-1.54389 -3.43634,-1.07838 -4.10536,1.03162 l -3.18604,10.02597 c -0.67136,2.10531 0.49123,3.23985 2.57316,2.51 z"
     id="path370"
     style="fill:#00e0e8;stroke-width:0.233923" /><path
     class="cls-3"
     d="m 127.04208,67.8181 c 0.41405,-2.175492 -0.99185,-3.462073 -3.12289,-2.85855 l -8.23411,2.339239 c -2.13105,0.603523 -2.6527,2.435147 -1.16963,4.072614 l 7.09024,7.77095 c 1.49243,1.637468 3.04101,1.193012 3.46441,-0.982479 z"
     id="path372"
     style="fill:#00e0e8;stroke-width:0.233923" /><path
     class="cls-2"
     d="m 96.676408,54.187357 c -1.345062,-1.857356 -3.312362,-1.712323 -4.369698,0.322814 l -1.74741,3.359147 c -1.059676,2.032798 -0.04912,3.726407 2.243329,3.763834 l 5.216508,0.08421 c 2.292463,0.03743 3.066753,-1.450327 1.721679,-3.305343 z"
     id="path374"
     style="fill:#006cff;stroke-width:0.233923" /><path
     class="cls-2"
     d="m 63.145763,57.993298 c -2.280758,0.233924 -3.136919,2.011744 -1.90648,3.943956 l 2.037477,3.1954 c 1.23044,1.932211 3.202417,1.90414 4.379055,-0.06082 l 2.685446,-4.477303 c 1.169619,-1.964961 0.27603,-3.3802 -2.002389,-3.141597 z"
     id="path376"
     style="fill:#006cff;stroke-width:0.233923" /><path
     class="cls-2"
     d="m 49.676427,88.934406 c -0.935695,2.105315 0.173104,3.724072 2.463219,3.623483 L 55.924533,92.3918 c 2.290115,-0.100586 3.251542,-1.822266 2.138064,-3.824654 L 55.526862,84.00563 c -1.113476,-2.002388 -2.790711,-1.929871 -3.724067,0.163747 z"
     id="path378"
     style="fill:#006cff;stroke-width:0.233923" /><path
     class="cls-2"
     d="m 69.737737,116.06959 c 1.345062,1.85735 3.312362,1.71231 4.369698,-0.32282 l 1.74741,-3.35915 c 1.059676,-2.0328 0.04912,-3.72641 -2.243329,-3.76383 l -5.216502,-0.0842 c -2.292454,-0.0375 -3.066742,1.45032 -1.721679,3.30534 z"
     id="path380"
     style="fill:#006cff;stroke-width:0.233923" /><path
     class="cls-2"
     d="m 103.26839,112.26365 c 2.28076,-0.23393 3.13692,-2.01176 1.90649,-3.94397 l -2.03748,-3.1954 c -1.23044,-1.93221 -3.202424,-1.90414 -4.379062,0.0608 l -2.685454,4.4773 c -1.169619,1.96497 -0.276029,3.38021 2.002396,3.14161 z"
     id="path382"
     style="fill:#006cff;stroke-width:0.233923" /><path
     class="cls-2"
     d="m 116.73773,81.322524 c 0.93569,-2.093619 -0.1731,-3.724068 -2.46322,-3.623481 l -3.78489,0.166086 c -2.29011,0.100588 -3.25154,1.822267 -2.13806,3.824656 l 2.53573,4.561514 c 1.11349,2.002389 2.79071,1.929872 3.72407,-0.163746 z"
     id="path384"
     style="fill:#006cff;stroke-width:0.233923" /><path
     class="cls-1"
     d="M 38.791707,211.98831 V 190.12719 H 36.4583 v -4.52869 h 2.333407 v -1.18538 c 0,-5.04835 3.572003,-7.66707 8.477706,-7.66707 h 1.094811 v 4.52869 c -3.238013,0 -4.619264,1.14236 -4.619264,3.09536 v 1.23859 h 4.619264 v 4.52869 H 43.74496 v 21.85093 z"
     id="path306"
     style="fill:#ffffff;stroke-width:0.113217" /><path
     class="cls-1"
     d="m 57.22234,220.79888 3.857311,-9.33477 -10.529203,-25.85995 h 5.333664 l 7.763302,20.47874 7.953513,-20.47874 h 5.338196 l -14.573325,35.19472 z"
     id="path308"
     style="fill:#ffffff;stroke-width:0.113217" /><path
     class="cls-1"
     d="m 97.132549,211.98831 v -14.37859 c 0,-5.57142 -2.190755,-8.19127 -6.572261,-8.19127 -4.333957,0 -6.953804,3.19046 -6.953804,8.14372 v 14.42614 h -4.953257 v -26.37962 h 4.620395 v 2.81005 h 0.0951 c 1.951869,-2.52474 4.666818,-3.52445 7.714623,-3.52445 6.340169,0 11.001325,3.99997 11.001325,11.28663 v 15.80739 z"
     id="path310"
     style="fill:#ffffff;stroke-width:0.113217" /><path
     class="cls-1"
     d="m 109.18113,200.93944 c 1.1435,4.3815 4.6204,7.19042 8.66792,7.19042 3.09536,0 6.00051,-1.619 7.52442,-4.42906 h 4.95325 c -2.0481,5.43443 -7.00023,8.95436 -12.66788,8.95436 -7.42931,0 -13.42983,-6.57226 -13.42983,-13.62117 0,-8.33391 6.28582,-14.14422 13.28718,-14.14422 7.76217,0 13.66758,6.00051 13.66758,13.57248 a 15.003547,15.003547 0 0 1 -0.14265,2.47719 z m 17.04939,-3.81089 c -0.38041,-4.47661 -4.33283,-7.71463 -8.57168,-7.71463 -4.04865,0 -8.09616,3.19046 -8.47771,7.71463 z"
     id="path312"
     style="fill:#ffffff;stroke-width:0.113217" /></svg>
